<?xml version="1.0" encoding="utf-8"?>
<!-- Generator: Adobe Illustrator 23.0.1, SVG Export Plug-In . SVG Version: 6.00 Build 0)  -->
<svg version="1.1" xmlns="http://www.w3.org/2000/svg" xmlns:xlink="http://www.w3.org/1999/xlink" x="0px" y="0px"
	 viewBox="0 0 1296 1728" style="enable-background:new 0 0 1296 1728;" xml:space="preserve">
<style type="text/css">
	.st0{fill:#FFFFFF;stroke:#000000;stroke-miterlimit:10;}
	.st1{fill:none;stroke:#000000;stroke-miterlimit:10;}
	.st2{display:none;}
	.st3{display:inline;}
</style>
<g id="Layer_1">
	<path class="st0" d="M130.28,189.49c7.14,24.23,29.55,41.91,56.09,41.91c0.94,0,1.87-0.02,2.8-0.07
		c-8.47,6.6-19.12,10.53-30.69,10.53c-27.61,0-50-22.39-50-50c0-18.36,9.89-34.4,24.64-43.1c-3.35,7.37-5.22,15.55-5.22,24.17
		C127.9,178.68,128.73,184.24,130.28,189.49"/>
	<path class="st0" d="M133.12,148.76"/>
	<path class="st0" d="M189.09,231.4"/>
	<polygon class="st0" points="149.1,153.54 151.22,147.66 153.34,153.54 159.22,155.66 153.34,157.78 151.22,163.66 149.1,157.78 
		143.22,155.66 	"/>
	<polygon class="st0" points="172.39,175.19 174.51,169.31 176.63,175.19 182.51,177.31 176.63,179.43 174.51,185.31 172.39,179.43 
		166.51,177.31 	"/>
	<polygon class="st0" points="179.05,207.28 181.17,201.41 183.29,207.28 189.17,209.41 183.29,211.53 181.17,217.41 179.05,211.53 
		173.17,209.41 	"/>
	<path class="st1" d="M303.23,186.5c4.17-6.51,9.92-12.15,17.08-16.28c23.91-13.81,54.49-5.61,68.3,18.3
		c4.55,7.89,6.72,16.5,6.71,25c-0.02,0-100,0-100.02,0C295.31,203.97,298.06,194.57,303.23,186.5z"/>
	<line class="st1" x1="373.08" y1="165.42" x2="381.54" y2="150.77"/>
	<line class="st1" x1="393.41" y1="185.75" x2="408.06" y2="177.29"/>
	<line class="st1" x1="317.53" y1="165.42" x2="309.08" y2="150.77"/>
	<line class="st1" x1="297.2" y1="185.75" x2="282.55" y2="177.29"/>
	<line class="st1" x1="345.31" y1="158" x2="345.31" y2="141.09"/>
	<circle class="st1" cx="526.79" cy="203.46" r="50"/>
	<line class="st1" x1="582.32" y1="203.46" x2="599.23" y2="203.46"/>
	<line class="st1" x1="566.07" y1="164.18" x2="578.03" y2="152.22"/>
	<line class="st1" x1="526.79" y1="147.93" x2="526.79" y2="131.02"/>
	<line class="st1" x1="487.52" y1="164.18" x2="475.56" y2="152.22"/>
	<line class="st1" x1="471.26" y1="203.46" x2="454.36" y2="203.46"/>
	<line class="st1" x1="487.52" y1="242.73" x2="475.56" y2="254.69"/>
	<line class="st1" x1="526.79" y1="258.99" x2="526.79" y2="275.89"/>
	<line class="st1" x1="566.07" y1="242.73" x2="578.03" y2="254.69"/>
	<path class="st1" d="M117.14,444.44c4.17-6.51,9.92-12.15,17.08-16.28c23.91-13.81,54.49-5.61,68.3,18.3
		c4.55,7.89,6.71,16.5,6.71,25c-0.02,0-100,0-100.02,0C109.22,461.91,111.97,452.5,117.14,444.44z"/>
	<line class="st1" x1="102.9" y1="434.24" x2="114.67" y2="434.24"/>
	<line class="st1" x1="96.47" y1="441.73" x2="111.24" y2="441.73"/>
	<line class="st1" x1="100.33" y1="448.58" x2="108.48" y2="448.58"/>
	<line class="st1" x1="169.89" y1="445.37" x2="180.17" y2="445.37"/>
	<line class="st1" x1="175.03" y1="453.29" x2="187.66" y2="453.29"/>
	<line class="st1" x1="206.92" y1="428.88" x2="216.77" y2="428.88"/>
	<line class="st1" x1="200.29" y1="434.24" x2="213.77" y2="434.24"/>
	<line class="st1" x1="207.03" y1="440.23" x2="216.77" y2="440.23"/>
</g>
<g id="Layer_2" class="st2">
	<g class="st3">
		<g>
			<circle class="st1" cx="501.82" cy="422.86" r="100"/>
			<circle class="st1" cx="501.82" cy="422.86" r="93.57"/>
			<circle class="st1" cx="501.82" cy="422.86" r="84.69"/>
			<circle class="st1" cx="501.82" cy="422.86" r="72.44"/>
			<circle class="st1" cx="501.82" cy="422.86" r="55.53"/>
			<circle class="st1" cx="501.82" cy="422.86" r="32.2"/>
		</g>
		<g>
			<line class="st1" x1="501.82" y1="422.86" x2="501.82" y2="522.86"/>
			<line class="st1" x1="501.82" y1="422.86" x2="431.11" y2="493.57"/>
			<line class="st1" x1="501.82" y1="422.86" x2="401.82" y2="422.86"/>
			<line class="st1" x1="501.82" y1="422.86" x2="431.11" y2="352.15"/>
			<line class="st1" x1="501.82" y1="422.86" x2="501.82" y2="322.86"/>
			<line class="st1" x1="501.82" y1="422.86" x2="572.53" y2="352.15"/>
			<line class="st1" x1="501.82" y1="422.86" x2="601.82" y2="422.86"/>
			<line class="st1" x1="501.82" y1="422.86" x2="572.53" y2="493.57"/>
		</g>
	</g>
</g>
</svg>
